<svg width="65" height="56" viewBox="0 0 65 56" fill="none" xmlns="http://www.w3.org/2000/svg">
<path d="M32.5 34.1759C35.6972 34.1759 38.2891 31.584 38.2891 28.3868C38.2891 25.1896 35.6972 22.5977 32.5 22.5977C29.3028 22.5977 26.7109 25.1896 26.7109 28.3868C26.7109 31.584 29.3028 34.1759 32.5 34.1759Z" fill="url(#paint0_linear_2_56)"/>
<path d="M54.4883 18.8398C53.3711 18.4336 52.2031 18.0273 50.9844 17.6719C51.2891 16.4531 51.543 15.2344 51.7461 14.0664C52.8125 7.36332 51.6445 2.64063 48.3945 0.8125C47.4297 0.25391 46.3633 0 45.1445 0C41.5898 0 37.0703 2.64063 32.5 7.05862C27.9297 2.64063 23.4102 0 19.8555 0C18.6367 0 17.5703 0.25391 16.6055 0.8125C13.3555 2.69141 12.1875 7.41402 13.2539 14.0664C13.457 15.2344 13.7109 16.4531 14.0156 17.6719C12.7969 18.0273 11.6289 18.3828 10.5117 18.8398C4.16406 21.2773 0.710938 24.6289 0.710938 28.3867C0.710938 32.1445 4.21484 35.4961 10.5117 37.9336C11.6289 38.3398 12.7969 38.7461 14.0156 39.1015C13.7109 40.3203 13.457 41.539 13.2539 42.707C12.1875 49.4101 13.3555 54.1328 16.6055 55.9609C17.5703 56.5195 18.6367 56.7734 19.8555 56.7734C23.4609 56.7734 27.9805 54.1328 32.5 49.7148C37.0703 54.1328 41.5898 56.7734 45.1445 56.7734C46.3633 56.7734 47.4297 56.5195 48.3945 55.9609C51.6445 54.082 52.8125 49.3594 51.7461 42.707C51.543 41.539 51.2891 40.3203 50.9844 39.1015C52.2031 38.7461 53.3711 38.3906 54.4883 37.9336C60.8359 35.4961 64.2891 32.1445 64.2891 28.3867C64.2891 24.6289 60.8359 21.2773 54.4883 18.8398ZM46.9727 3.35156C49.0547 4.57031 49.7656 8.32812 48.9023 13.6601C48.75 14.7265 48.4961 15.8437 48.1914 17.0117C45.5508 16.4023 42.7578 15.9961 39.8125 15.7422C38.0859 13.3047 36.3086 11.1211 34.5312 9.14062C38.2891 5.43359 42.0977 2.89453 45.1953 2.89453C45.8555 2.89453 46.4648 3.04688 46.9727 3.35156ZM41.2852 33.4648C40.3711 35.0898 39.3047 36.7148 38.1875 38.3398C36.3086 38.4922 34.4297 38.543 32.5 38.543C30.5195 38.543 28.6406 38.4922 26.8125 38.3398C25.6953 36.7148 24.6797 35.0898 23.7656 33.4648C22.8008 31.789 21.8867 30.0625 21.0742 28.3867C21.8867 26.7109 22.8008 24.9844 23.7656 23.3086C24.6797 21.6836 25.7461 20.0586 26.8633 18.4336C28.7422 18.2812 30.6211 18.2305 32.5508 18.2305C34.5312 18.2305 36.4102 18.2812 38.2383 18.4336C39.3555 20.0586 40.3711 21.6836 41.2852 23.3086C42.25 24.9844 43.1641 26.7109 43.9766 28.3867C43.1133 30.0625 42.25 31.7383 41.2852 33.4648ZM45.5 31.789C46.2617 33.5664 46.8711 35.293 47.4297 37.0195C45.7031 37.4258 43.875 37.7305 41.9453 37.9844C42.5547 37.0195 43.2148 36.0039 43.7734 34.9375C44.3828 33.8711 44.9414 32.8047 45.5 31.789ZM32.5 45.5508C31.2812 44.2305 30.1133 42.8086 28.9961 41.3359C30.1641 41.3867 31.332 41.4375 32.5 41.4375C33.668 41.4375 34.8359 41.3867 36.0039 41.3359C34.8867 42.8086 33.7187 44.2305 32.5 45.5508ZM23.0547 37.9336C21.125 37.6797 19.2969 37.375 17.5703 36.9687C18.1289 35.293 18.7383 33.5156 19.5 31.7383C20.0586 32.7539 20.6172 33.8203 21.2266 34.8359C21.8359 35.9531 22.4453 36.918 23.0547 37.9336ZM19.5 24.9844C18.7383 23.207 18.1289 21.4805 17.5703 19.7539C19.2969 19.3476 21.125 19.0429 23.0547 18.789C22.4453 19.7539 21.7852 20.7695 21.2266 21.8359C20.6172 22.9023 20.0586 23.9687 19.5 24.9844ZM32.5 11.2226C33.7187 12.543 34.8867 13.9648 36.0039 15.4375C34.8359 15.3867 33.668 15.3359 32.5 15.3359C31.332 15.3359 30.1641 15.3867 28.9961 15.4375C30.1133 13.9648 31.2812 12.543 32.5 11.2226ZM43.7734 21.8867L41.9453 18.8398C43.875 19.0937 45.7031 19.3984 47.4297 19.8047C46.8711 21.4804 46.2617 23.2578 45.5 25.0351C44.9414 23.9687 44.3828 22.9023 43.7734 21.8867ZM16.0977 13.6601C15.2344 8.32812 15.9453 4.57031 18.0273 3.35156C18.5352 3.04688 19.1445 2.89453 19.8047 2.89453C22.8516 2.89453 26.6602 5.38281 30.4687 9.14062C28.6914 11.0703 26.9141 13.3047 25.1875 15.7422C22.2422 15.9961 19.4492 16.4531 16.8086 17.0117C16.5039 15.8437 16.3008 14.7265 16.0977 13.6601ZM3.55469 28.3867C3.55469 26 6.44922 23.4609 11.5273 21.582C12.543 21.1758 13.6602 20.8203 14.7773 20.5156C15.5898 23.0547 16.6055 25.7461 17.8242 28.4375C16.6055 31.1289 15.5391 33.7695 14.7773 36.3086C7.76953 34.2773 3.55469 31.2305 3.55469 28.3867ZM18.0273 53.4219C15.9453 52.2031 15.2344 48.4453 16.0977 43.1133C16.25 42.0469 16.5039 40.9297 16.8086 39.7617C19.4492 40.3711 22.2422 40.7773 25.1875 41.0312C26.9141 43.4687 28.6914 45.6523 30.4687 47.6328C26.7109 51.3398 22.9023 53.8789 19.8047 53.8789C19.1445 53.8789 18.5352 53.7265 18.0273 53.4219ZM48.9023 43.1133C49.7656 48.4453 49.0547 52.2031 46.9727 53.4219C46.4648 53.7265 45.8555 53.8789 45.1953 53.8789C42.1484 53.8789 38.3398 51.3906 34.5312 47.6328C36.3086 45.7031 38.0859 43.4687 39.8125 41.0312C42.7578 40.7773 45.5508 40.3203 48.1914 39.7617C48.4961 40.9297 48.6992 42.0469 48.9023 43.1133ZM53.4727 35.1914C52.457 35.5976 51.3398 35.9531 50.2227 36.2578C49.4102 33.7187 48.3945 31.0273 47.1758 28.3359C48.3945 25.6445 49.4609 23.0039 50.2227 20.4648C57.2305 22.4961 61.4453 25.543 61.4453 28.3867C61.4453 30.7734 58.5 33.3125 53.4727 35.1914Z" fill="url(#paint1_linear_2_56)"/>
<defs>
<linearGradient id="paint0_linear_2_56" x1="39.5379" y1="21.4398" x2="30.0397" y2="33.4958" gradientUnits="userSpaceOnUse">
<stop stop-color="#29FF81"/>
<stop offset="1" stop-color="#9D73FF"/>
</linearGradient>
<linearGradient id="paint1_linear_2_56" x1="71.1465" y1="-5.67734" x2="26.0583" y2="58.4116" gradientUnits="userSpaceOnUse">
<stop stop-color="#29FF81"/>
<stop offset="1" stop-color="#9D73FF"/>
</linearGradient>
</defs>
</svg>
