<svg width="65" height="65" viewBox="0 0 65 65" fill="none" xmlns="http://www.w3.org/2000/svg">
<mask id="mask0_2_22" style="mask-type:luminance" maskUnits="userSpaceOnUse" x="0" y="0" width="65" height="65">
<path d="M65 0H0V65H65V0Z" fill="white"/>
</mask>
<g mask="url(#mask0_2_22)">
<path d="M45.0379 44.7433C40.4676 54.0871 32.4645 60.3738 21.8766 62.4406C20.2532 62.8383 18.5866 63.0328 16.9152 63.0195C10.8215 63.0195 5.23555 60.4804 2.52384 56.3214C-1.11718 50.7812 -2.35624 39.0355 9.64845 30.3468C9.8922 31.6722 10.3899 33.4902 10.7199 34.5667C8.36334 36.3175 6.43438 38.5798 5.07813 41.1835C2.84376 45.571 3.09259 49.9535 5.73829 54.0058C7.56641 56.7378 10.4609 58.3984 14.1832 58.9062C18.8324 59.4947 23.549 58.6064 27.6656 56.3671C34.1199 52.9749 38.4211 48.9226 41.2344 43.3824C40.4389 42.5603 39.968 41.4779 39.909 40.3355C39.8665 39.1096 40.312 37.9168 41.1479 37.0191C41.9838 36.1213 43.1417 35.5918 44.3676 35.5468H44.5402C45.7326 35.5408 46.8816 35.9935 47.7495 36.811C48.6174 37.6286 49.1378 38.7485 49.2031 39.939C49.2683 41.1296 48.8733 42.2996 48.1 43.2071C47.3266 44.1146 46.2339 44.6901 45.0481 44.8144L45.0379 44.7433ZM59.5969 34.4855C65.7973 41.5136 65.9649 49.7859 63.568 54.5847C61.3336 58.9671 55.443 63.3546 47.5211 63.3546C43.823 63.2792 40.1851 62.4044 36.857 60.7902C38.0199 59.9624 39.6703 58.6371 40.5793 57.8093C43.1457 58.9211 45.9076 59.5115 48.7043 59.546C53.8332 59.546 57.718 57.1492 60.0336 52.7667C61.5215 49.8722 61.6078 46.48 60.2012 43.0066C58.4752 38.6363 55.4038 34.9282 51.4313 32.4187C46.2194 28.9054 40.0753 27.0324 33.7899 27.041H32.302C31.955 27.8424 31.3906 28.5307 30.6726 29.0279C29.9546 29.5251 29.1117 29.8114 28.2395 29.8542H28.082C26.8756 29.8394 25.7224 29.3548 24.8674 28.5034C24.0125 27.652 23.5232 26.5009 23.5033 25.2945C23.4835 24.0881 23.9347 22.9214 24.7612 22.0424C25.5877 21.1634 26.7244 20.6411 27.9297 20.5867H28.0973C28.9372 20.5873 29.7608 20.8194 30.4774 21.2574C31.1941 21.6955 31.7762 22.3226 32.1598 23.0699H33.4852C44.0477 23.0699 53.3203 27.1222 59.5969 34.4855ZM17.5754 46.1652C17.4884 45.3219 17.6927 44.4743 18.1543 43.7632C13.5231 35.7398 11.0449 25.5683 14.8484 14.9804C17.5754 7.02299 24.441 1.64526 31.8856 1.64526C39.8277 1.64526 48.1 8.59721 49.0902 21.9933C47.8512 21.582 46.0434 20.9777 44.9566 20.7542C44.6875 16.3718 40.9856 5.45385 32.2156 5.61635C29.0723 5.70268 24.441 7.19057 22.0594 10.2476C19.1134 13.8968 17.3996 18.3858 17.1641 23.0699C16.6058 29.4926 18.1127 35.9257 21.4652 41.4324C21.6503 41.3647 21.8476 41.3371 22.0441 41.3511H22.2066C23.4349 41.3289 24.6217 41.7955 25.506 42.6483C26.3902 43.5011 26.8995 44.6703 26.9217 45.8986C26.9439 47.1269 26.4773 48.3137 25.6245 49.1979C24.7717 50.0821 23.6025 50.5914 22.3742 50.6136H22.2066C21.0084 50.6094 19.8579 50.1428 18.9952 49.3113C18.1324 48.4797 17.6238 47.3473 17.5754 46.1499V46.1652Z" fill="url(#paint0_linear_2_22)"/>
</g>
<defs>
<linearGradient id="paint0_linear_2_22" x1="72.0104" y1="-4.52567" x2="22.0613" y2="62.2527" gradientUnits="userSpaceOnUse">
<stop stop-color="#29FF81"/>
<stop offset="1" stop-color="#9D73FF"/>
</linearGradient>
</defs>
</svg>
