<svg width="65" height="65" viewBox="0 0 65 65" fill="none" xmlns="http://www.w3.org/2000/svg">
<mask id="mask0_2_40" style="mask-type:luminance" maskUnits="userSpaceOnUse" x="0" y="0" width="65" height="65">
<path d="M65 0H0V65H65V0Z" fill="white"/>
</mask>
<g mask="url(#mask0_2_40)">
<path d="M54.5116 1.02166L51.0006 1.24053L51.2743 8.54135C51.2886 8.94506 50.8229 9.18071 50.5055 8.93033L48.1543 7.07682L45.369 9.19031C45.2973 9.24481 45.2115 9.27771 45.1218 9.28521C45.032 9.29281 44.942 9.27461 44.8622 9.23281C44.7824 9.19111 44.7162 9.12746 44.6712 9.04943C44.6262 8.9714 44.6044 8.88218 44.6083 8.79221L44.9216 1.62037L10.0918 3.79838C9.26324 3.85 8.48773 4.22347 7.93079 4.83904C7.37385 5.45462 7.07961 6.26353 7.11091 7.09307L9.07106 59.3155C9.10099 60.1134 9.42989 60.8708 9.99246 61.4375C10.555 62.0041 11.3101 62.3384 12.1078 62.374L54.567 64.2804C54.9962 64.2993 55.4248 64.2313 55.827 64.0803C56.2293 63.9293 56.5968 63.6985 56.9075 63.4018C57.2183 63.1052 57.4657 62.7485 57.6347 62.3534C57.8037 61.9584 57.8907 61.5332 57.8906 61.1035V4.1965C57.8909 3.76198 57.802 3.33203 57.6295 2.93322C57.457 2.53441 57.2045 2.17522 56.8877 1.87783C56.5712 1.58028 56.1971 1.35078 55.7884 1.20352C55.3797 1.05626 54.9452 0.994368 54.5116 1.02166ZM33.4577 11.7807C41.7391 11.7807 46.2617 16.2103 46.2617 24.638C45.1425 25.5079 36.8063 26.1005 36.8063 24.8629C36.982 20.1403 34.8679 19.9336 33.6934 19.9336C32.5772 19.9336 30.6978 20.2698 30.6978 22.7997C30.6978 29.0397 46.7904 28.703 46.7904 41.2963C46.7904 48.3802 41.0343 52.2929 33.6934 52.2929C26.1168 52.2929 19.4965 49.2278 20.244 38.6008C20.5375 37.3531 30.1691 37.6497 30.1691 38.6008C30.0524 42.9857 31.0502 44.2756 33.575 44.2756C35.5134 44.2756 36.3949 43.2077 36.3949 41.4085C36.3949 34.9994 20.5375 34.7749 20.5375 23.0252C20.5375 16.2789 25.1773 11.7807 33.4577 11.7807Z" fill="url(#paint0_linear_2_40)"/>
</g>
<defs>
<linearGradient id="paint0_linear_2_40" x1="63.3679" y1="-5.31143" x2="9.99213" y2="49.0668" gradientUnits="userSpaceOnUse">
<stop stop-color="#29FF81"/>
<stop offset="1" stop-color="#9D73FF"/>
</linearGradient>
</defs>
</svg>
