<svg width="66" height="65" viewBox="0 0 66 65" fill="none" xmlns="http://www.w3.org/2000/svg">
<mask id="mask0_2_47" style="mask-type:luminance" maskUnits="userSpaceOnUse" x="0" y="0" width="66" height="65">
<path d="M65.064 0H0.0639648V65H65.064V0Z" fill="white"/>
</mask>
<g mask="url(#mask0_2_47)">
<path d="M11.5761 23.8672H62.1898V61.2778H11.5761V23.8672Z" fill="#212121"/>
<path d="M0.825684 32.4544V64.1927H64.3022V0.716064H0.825684V32.4544ZM51.9776 29.9153C53.498 30.2681 54.8798 31.0633 55.9487 32.2005C56.5372 32.8131 57.0488 33.4952 57.4722 34.2317C57.4722 34.313 54.73 36.1665 53.0593 37.2024C52.9983 37.243 52.7546 36.979 52.4855 36.5778C52.1805 36.0515 51.7471 35.6111 51.2259 35.2977C50.7046 34.9842 50.1124 34.8079 49.5046 34.7852C47.58 34.6532 46.3409 35.6637 46.3511 37.3243C46.3352 37.7377 46.4298 38.1479 46.6253 38.5126C47.0468 39.3911 47.8339 39.9141 50.3019 40.9805C54.8468 42.9356 56.7917 44.2255 58.0003 46.0587C59.3511 48.0899 59.6507 51.3704 58.7366 53.7977C57.721 56.4384 55.2327 58.2309 51.7136 58.8251C50.1063 59.0092 48.4823 58.9921 46.8792 58.7743C44.4222 58.3693 42.159 57.1896 40.4198 55.4075C39.8358 54.7626 38.6983 53.0817 38.7694 52.9598C38.9548 52.8222 39.15 52.6983 39.3534 52.5891L41.7046 51.2891L43.5276 50.2329L43.9085 50.7966C44.5513 51.716 45.3692 52.4995 46.3155 53.102C48.3468 54.1684 51.1194 54.0212 52.4905 52.7872C52.9509 52.335 53.2381 51.7357 53.3021 51.0936C53.3661 50.4515 53.2029 49.8073 52.8409 49.2731C52.3331 48.5673 51.3175 47.9731 48.4788 46.7341C45.2034 45.3223 43.7917 44.4489 42.5019 43.0575C41.6966 42.1393 41.1021 41.056 40.7601 39.8837C40.5049 38.5443 40.4672 37.1725 40.6483 35.8212C41.3237 32.6575 43.6952 30.4485 47.1585 29.7934C48.7624 29.595 50.387 29.6395 51.9776 29.9255V29.9153ZM37.0784 32.5762V35.1762H28.8366V58.6524H22.9917V35.1712H14.7296V32.6321C14.7039 31.7565 14.7242 30.8802 14.7905 30.0067C14.8312 29.961 19.8687 29.961 25.9624 29.961H37.048L37.0784 32.5762Z" fill="url(#paint0_linear_2_47)"/>
</g>
<defs>
<linearGradient id="paint0_linear_2_47" x1="71.1487" y1="-5.6316" x2="19.0752" y2="60.4641" gradientUnits="userSpaceOnUse">
<stop stop-color="#29FF81"/>
<stop offset="1" stop-color="#9D73FF"/>
</linearGradient>
</defs>
</svg>
